# AST/ASF file generated using VICON BodyLanguage
# -----------------------------------------------
:version 1.10
:name VICON
:units
  mass 1.0
  length 0.45
  angle deg
:documentation
   .ast/.asf automatically generated from VICON data using
   VICON BodyBuilder and BodyLanguage model FoxedUp or BRILLIANT.MOD
:root
   order TX TY TZ RX RY RZ
   axis XYZ
   position 0 0 0  
   orientation 0 0 0 
:bonedata
  begin
     id 1 
     name lhipjoint
     direction 0.645893 -0.654526 0.392961 
     length 2.38111 
     axis 0 0 0  XYZ
  end
  begin
     id 2 
     name lfemur
     direction 0.34202 -0.939693 0  
     length 6.6822  
     axis 0 0 20  XYZ
    dof rx ry rz
    limits (-160.0 20.0)
           (-70.0 70.0)
           (-60.0 70.0)
  end
  begin
     id 3 
     name ltibia
     direction 0.34202 -0.939693 0   
     length 6.93904   
     axis 0 0 20   XYZ
    dof rx
    limits (-10.0 170.0)
  end
  begin
     id 4 
     name lfoot
     direction 0.0694967 -0.190941 0.979138   
     length 2.13616   
     axis -90 7.62852e-016 20   XYZ
    dof rx rz
    limits (-45.0 90.0)
           (-70.0 20.0)
  end
  begin
     id 5 
     name ltoes
     direction 1.535e-011 -4.2202e-011 1   
     length 1.07536   
     axis -90 7.62852e-016 20   XYZ
    dof rx
    limits (-90.0 20.0)
  end
  begin
     id 6 
     name rhipjoint
     direction -0.700219 -0.612087 0.367481   
     length 2.54621  
     axis 0 0 0  XYZ 
  end
  begin
     id 7 
     name rfemur
     direction -0.34202 -0.939693 0   
     length 6.55353   
     axis 0 0 -20   XYZ
    dof rx ry rz
    limits (-160.0 20.0)
           (-70.0 70.0)
           (-70.0 60.0)
  end
  begin
     id 8 
     name rtibia
     direction -0.34202 -0.939693 0   
     length 6.8736   
     axis 0 0 -20   XYZ
    dof rx
    limits (-10.0 170.0)
 end
 begin
     id 9 
     name rfoot
     direction -0.0679995 -0.186827 0.980037   
     length 2.1218  
     axis -90 -7.62852e-016 -20   XYZ
    dof rx rz
    limits (-45.0 90.0)
           (-20.0 70.0)
  end
  begin
     id 10 
     name rtoes
     direction -1.53589e-011 -4.21772e-011 1   
     length 1.06864   
     axis -90 -7.62852e-016 -20   XYZ
    dof rx
    limits (-90.0 20.0)
  end
  begin
     id 11 
     name lowerback
     direction -0.0416607 0.996347 -0.0745409   
     length 2.12205   
     axis 0 0 0   XYZ
    dof rx ry rz
    limits (-20.0 45.0)
           (-30.0 30.0)
           (-30.0 30.0)
  end
  begin
     id 12 
     name upperback
     direction -0.000153993 0.999276 -0.0380568   
     length 2.12759   
     axis 0 0 0   XYZ
    dof rx ry rz
    limits (-20.0 45.0)
           (-30.0 30.0)
           (-30.0 30.0)
  end
  begin
     id 13 
     name thorax
     direction 0.0187671 0.999821 -0.00241421   
     length 2.13704   
     axis 0 0 0   XYZ
    dof rx ry rz
    limits (-20.0 45.0)
           (-30.0 30.0)
           (-30.0 30.0)
  end
  begin
     id 14 
     name lowerneck
     direction 0.0268157 0.964865 0.261374   
     length 1.65253   
     axis 0 0 0   XYZ
    dof rx ry rz
    limits (-20.0 45.0)
           (-30.0 30.0)
           (-30.0 30.0)
  end
  begin
     id 15 
     name upperneck
     direction 0.00263774 0.939908 -0.341418   
     length 1.72375   
     axis 0 0 0   XYZ
    dof rx ry rz
    limits (-20.0 45.0)
           (-30.0 30.0)
           (-30.0 30.0)
  end
  begin
     id 16
     name head
     direction -0.00526001 0.989001 -0.147818  
     length 1.74878  
     axis 0 0 0   XYZ
    dof rx ry rz
    limits (-20.0 45.0)
           (-30.0 30.0)
           (-30.0 30.0)
  end
  begin
     id 17 
     name lclavicle
     direction 0.881214 0.461162 -0.103884  
     length 3.25108  
     axis 0 0 0   XYZ
    dof ry rz
    limits (-20.0 10.0)
           (0.0 20.0)
  end
  begin
     id 18 
     name lhumerus
     direction 1 -4.4899e-011 3.38092e-027   
     length 4.87408   
     axis 180 -30 -90   XYZ
    dof rx ry rz
    limits (-60.0 90.0)
           (-90.0 90.0)
           (-90.0 90.0)
  end
  begin
     id 19
     name lradius
     direction 1 -4.48931e-011 9.96288e-027   
     length 2.76729   
     axis 180 -30 -90   XYZ
    dof rx
    limits (-10.0 170.0)
  end
  begin
     id 20
     name lwrist
     direction 1 -4.4896e-011 1.50617e-026   
     length 1.38364   
     axis -9.31234e-015 90 90   XYZ
    dof ry
    limits (-180.0 0.0)
 end
  begin
     id 21 
     name lhand
     direction 1 -4.49038e-011 3.01286e-026   
     length 0.98922   
     axis -1.92217e-014 90 90   XYZ
    dof rx rz
    limits (-90.0 90.0)
           (-45.0 45.0)
  end
  begin
     id 22 
     name lfingers
     direction 1 -4.49051e-011 6.02588e-026   
     length 0.797535   
     axis -3.84436e-014 90 90   XYZ
    dof rx
    limits (0.0 90.0)
  end
  begin
     id 23
     name lthumb
     direction 0.707107 -6.34901e-011 0.707107   
     length 1.14511   
     axis -90 45 2.19363e-014   XYZ
    dof rx rz
    limits (-45.0 45.0)
           (-45.0 45.0)
  end
  begin
     id 24 
     name rclavicle
     direction -0.893894 0.441652 -0.0767889   
     length 3.29361  
     axis 0 0 0   XYZ 
    dof ry rz
    limits (-10.0 20.0)
           (-20.0 0.0)
  end
  begin
     id 25 
     name rhumerus
     direction -1 -4.48945e-011 8.0491e-028  
     length 4.71404   
     axis 180 30 90   XYZ
    dof rx ry rz
    limits (-90.0 60.0)
           (-90.0 90.0)
           (-90.0 90.0)
  end
  begin
     id 26 
     name rradius
     direction -1 -4.48986e-011 9.27795e-027   
     length 2.83468   
     axis 180 30 90   XYZ
    dof rx
    limits (-10.0 170.0)
  end
  begin
     id 27 
     name rwrist
     direction -1 -4.49029e-011 1.5064e-026   
     length 1.41734   
     axis -9.31234e-015 -90 -90   XYZ
    dof ry
    limits (-180.0 0.0)
  end
  begin
     id 28
     name rhand
     direction -1 -4.48857e-011 3.01165e-026   
     length 0.868195   
     axis -1.92217e-014 -90 -90   XYZ
    dof rx rz
    limits (-90.0 90.0)
           (-45.0 45.0)
  end
  begin
     id 29
     name rfingers
     direction -1 -4.49048e-011 6.02585e-026   
     length 0.699961   
     axis -3.84436e-014 -90 -90   XYZ
    dof rx
    limits (0.0 90.0)
  end
  begin
     id 30
     name rthumb
     direction -0.707107 -6.34854e-011 0.707107   
     length 1.00501   
     axis -90 -45 -2.19363e-014   XYZ
    dof rx rz
    limits (-45.0 45.0)
           (-45.0 45.0)
  end
:hierarchy
  begin
    root lhipjoint rhipjoint lowerback
    lhipjoint lfemur
    lfemur ltibia
    ltibia lfoot
    lfoot ltoes
    rhipjoint rfemur
    rfemur rtibia
    rtibia rfoot
    rfoot rtoes
    lowerback upperback
    upperback thorax
    thorax lowerneck lclavicle rclavicle
    lowerneck upperneck
    upperneck head
    lclavicle lhumerus
    lhumerus lradius
    lradius lwrist
    lwrist lhand lthumb
    lhand lfingers
    rclavicle rhumerus
    rhumerus rradius
    rradius rwrist
    rwrist rhand rthumb
    rhand rfingers
  end

#!OML:ASF H:\ManfredObstacles\Project 1\Capture day 2\Session 1\male.ASF
:FULLY-SPECIFIED
:DEGREES
33
root 1.6553 15.96 24.8622 -179.334 -0.351866 181.207
lowerback -2.79705 2.9216 -1.04077
upperback 1.88436 3.93557 -0.265087
thorax 3.45278 1.93027 0.532822
lowerneck -29.0218 0.604795 0.824779
upperneck 42.4973 -3.91388 0.843346
head 23.4346 -2.24711 -1.28297
rclavicle 5.1684e-014 -8.34896e-015
rhumerus -39.6028 11.7422 -96.036
rradius 79.3816
rwrist 12.8654
rhand -10.1899 -0.0951106
rfingers 7.12502
rthumb 15.8007 -29.4703
lclavicle 5.1684e-014 -8.34896e-015
lhumerus -52.1342 -6.4948 84.4453
lradius 56.788
lwrist -23.2944
lhand -13.877 6.81467
lfingers 7.12502
lthumb 12.2477 36.436
rfemur -0.418234 0.716844 28.7398
rtibia 25.0815
rfoot -4.51705 -17.5532
rtoes -25.7581
lfemur -34.323 -3.45135 -17.2892
ltibia 45.3927
lfoot 12.3778 12.695
ltoes -6.52562
34
root 1.6523 15.9829 24.6932 -179.206 -0.237242 181.243
lowerback -2.92772 3.07683 -0.909728
upperback 1.78793 4.14205 -0.318219
thorax 3.43712 2.03825 0.421736
lowerneck -29.2187 0.516016 0.803148
upperneck 42.5774 -4.05639 0.839155
head 23.5831 -2.29457 -1.32922
rclavicle -1.8313e-014 -1.03368e-014
rhumerus -39.0133 12.4011 -96.2948
rradius 79.4031
rwrist 13.3377
rhand -9.96958 0.104957
rfingers 7.12502
rthumb 16.0129 -29.2533
lclavicle -1.8313e-014 -1.03368e-014
lhumerus -52.4575 -6.27391 84.0036
lradius 55.734
lwrist -23.2563
lhand -13.5947 7.2087
lfingers 7.12502
lthumb 12.5199 36.8136
rfemur 0.681916 0.820373 28.683
rtibia 23.9327
rfoot -4.02317 -17.052
rtoes -26.3947
lfemur -34.3593 -3.92435 -17.0505
ltibia 42.501
lfoot 12.9851 11.4523
ltoes -6.55843
35
root 1.64863 16.0026 24.5237 -179.079 -0.0724736 181.268
lowerback -3.07971 3.22872 -0.80082
upperback 1.71432 4.34441 -0.361802
thorax 3.45597 2.14283 0.335245
lowerneck -29.5099 0.452728 0.838142
upperneck 42.652 -4.14236 0.766609
head 23.7584 -2.31563 -1.40955
rclavicle -4.6292e-014 5.56597e-015
rhumerus -38.4377 13.0834 -96.5239
rradius 79.4447
rwrist 13.7318
rhand -9.75914 0.25027
rfingers 7.12502
rthumb 16.2156 -29.0916
lclavicle -4.6292e-014 5.56597e-015
lhumerus -52.7548 -6.04838 83.5962
lradius 54.7418
lwrist -23.1849
lhand -13.2949 7.668
lfingers 7.12502
lthumb 12.8089 37.255
rfemur 1.76998 0.945662 28.6057
rtibia 22.7953
rfoot -3.50896 -16.5126
rtoes -27.0651
lfemur -34.3259 -4.38538 -16.8075
ltibia 39.6693
lfoot 13.8317 10.3093
ltoes -6.49123
36
root 1.64436 16.019 24.3537 -178.959 0.142814 181.283
lowerback -3.23079 3.35627 -0.697732
upperback 1.66406 4.54022 -0.404079
thorax 3.49914 2.25487 0.255273
lowerneck -29.7852 0.413599 0.88503
upperneck 42.6786 -4.17633 0.696034
head 23.8841 -2.31347 -1.47263
rclavicle 2.5022e-014 -1.07344e-014
rhumerus -37.8531 13.7827 -96.7299
rradius 79.4822
rwrist 14.0725
rhand -9.5337 0.376201
rfingers 7.12502
rthumb 16.4326 -28.9478
lclavicle 2.5022e-014 -1.07344e-014
lhumerus -53.0215 -5.80891 83.2022
lradius 53.8107
lwrist -23.0943
lhand -13.0021 8.10766
lfingers 7.12502
lthumb 13.0912 37.6768
rfemur 2.84978 1.08162 28.5113
rtibia 21.6756
rfoot -2.98742 -15.9422
rtoes -27.7605
lfemur -34.2252 -4.83675 -16.5553
ltibia 36.9345
lfoot 14.8628 9.3363
ltoes -6.36602
37
root 1.63943 16.0317 24.1833 -178.848 0.412137 181.298
lowerback -3.3856 3.49921 -0.602171
upperback 1.62902 4.72757 -0.437642
thorax 3.55959 2.3497 0.188769
lowerneck -30.0138 0.392094 0.927754
upperneck 42.6787 -4.177 0.635304
head 23.9681 -2.30013 -1.51736
rclavicle -5.91384e-015 -1.74931e-014
rhumerus -37.2791 14.4934 -96.9108
rradius 79.5039
rwrist 14.3388
rhand -9.29475 0.484209
rfingers 7.12502
rthumb 16.6627 -28.8206
lclavicle -5.91384e-015 -1.74931e-014
lhumerus -53.2808 -5.56404 82.8327
lradius 52.938
lwrist -22.9911
lhand -12.7282 8.44639
lfingers 7.12502
lthumb 13.3552 37.9984
rfemur 3.9213 1.22785 28.4106
rtibia 20.5831
rfoot -2.47827 -15.3567
rtoes -28.4541
lfemur -34.0704 -5.28733 -16.2811
ltibia 34.337
lfoot 16.0246 8.57405
ltoes -6.20282
38
root 1.63355 16.0409 24.0127 -178.751 0.729466 181.312
lowerback -3.52663 3.65387 -0.49857
upperback 1.58142 4.92999 -0.481584
thorax 3.60165 2.45248 0.107555
lowerneck -30.0675 0.385319 0.973287
upperneck 42.64 -4.18257 0.627199
head 23.9507 -2.28787 -1.52876
rclavicle 1.38155e-014 -2.78299e-015
rhumerus -36.7654 15.1456 -97.0912
rradius 79.502
rwrist 14.5635
rhand -9.05212 0.576896
rfingers 7.12502
rthumb 16.8963 -28.7081
lclavicle 1.38155e-014 -2.78299e-015
lhumerus -53.5778 -5.38354 82.4839
lradius 52.1272
lwrist -22.872
lhand -12.48 8.69243
lfingers 7.12502
lthumb 13.5944 38.2286
rfemur 4.98631 1.37665 28.3034
rtibia 19.5245
rfoot -1.99194 -14.7671
rtoes -29.1223
lfemur -33.8729 -5.72544 -15.9939
ltibia 31.9192
lfoot 17.2029 8.05868
ltoes -6.03309
39
root 1.62664 16.047 23.8415 -178.651 1.08917 181.318
lowerback -3.67204 3.81496 -0.39287
upperback 1.5154 5.14077 -0.53739
thorax 3.62939 2.55965 0.0139742
lowerneck -29.9896 0.388466 1.01298
upperneck 42.5886 -4.19826 0.660763
head 23.873 -2.28129 -1.51588
rclavicle -2.48729e-014 -1.98785e-015
rhumerus -36.3065 15.7621 -97.2796
rradius 79.4517
rwrist 14.7768
rhand -8.85109 0.628484
rfingers 7.12502
rthumb 17.0898 -28.6399
lclavicle -2.48729e-014 -1.98785e-015
lhumerus -53.9061 -5.24728 82.138
lradius 51.3402
lwrist -22.8027
lhand -12.2609 8.79603
lfingers 7.12502
lthumb 13.8056 38.3179
rfemur 6.02754 1.53083 28.1824
rtibia 18.51
rfoot -1.54244 -14.188
rtoes -29.7354
lfemur -33.6636 -6.13395 -15.7127
ltibia 29.7243
lfoot 18.2806 7.77088
ltoes -5.91673
40
root 1.61876 16.0497 23.6702 -178.559 1.47988 181.324
lowerback -3.82043 3.98671 -0.287399
upperback 1.43434 5.36564 -0.599911
thorax 3.64506 2.67392 -0.0849571
lowerneck -29.7718 0.397618 1.03951
upperneck 42.5348 -4.23833 0.748766
head 23.7438 -2.28599 -1.47529
rclavicle 7.74018e-014 -1.59028e-015
rhumerus -35.9135 16.3088 -97.4612
rradius 79.3578
rwrist 15.0336
rhand -8.66152 0.670334
rfingers 7.12502
rthumb 17.2722 -28.5821
lclavicle 7.74018e-014 -1.59028e-015
lhumerus -54.2461 -5.17478 81.8113
lradius 50.5518
lwrist -22.7978
lhand -12.0671 8.79763
lfingers 7.12502
lthumb 13.9923 38.3067
rfemur 7.05167 1.6922 28.0596
rtibia 17.5499
rfoot -1.12311 -13.6388
rtoes -30.2971
lfemur -33.451 -6.50341 -15.4443
ltibia 27.7917
lfoot 19.1549 7.69961
ltoes -5.88925
41
root 1.60998 16.0492 23.4987 -178.476 1.8982 181.325
lowerback -3.9374 4.16036 -0.171293
upperback 1.33014 5.59264 -0.680557
thorax 3.62319 2.78999 -0.210791
lowerneck -29.5155 0.412044 1.08272
upperneck 42.4735 -4.2864 0.846974
head 23.5943 -2.29134 -1.43392
rclavicle 1.74931e-014 -8.34896e-015
rhumerus -35.5815 16.8012 -97.6668
rradius 79.201
rwrist 15.3448
rhand -8.51262 0.680132
rfingers 7.12502
rthumb 17.4155 -28.5597
lclavicle 1.74931e-014 -8.34896e-015
lhumerus -54.5954 -5.14926 81.4765
lradius 49.7523
lwrist -22.8826
lhand -11.8814 8.78617
lfingers 7.12502
lthumb 14.1713 38.2828
rfemur 8.04936 1.86308 27.9315
rtibia 16.6627
rfoot -0.728161 -13.1244
rtoes -30.8189
lfemur -33.2431 -6.79413 -15.2174
ltibia 26.1499
lfoot 19.775 7.78534
ltoes -6.05622
